<?xml version="1.0" standalone="no"?><!DOCTYPE svg PUBLIC "-//W3C//DTD SVG 1.1//EN" "http://www.w3.org/Graphics/SVG/1.1/DTD/svg11.dtd"><svg t="1735708843393" class="icon" viewBox="0 0 1024 1024" version="1.1" xmlns="http://www.w3.org/2000/svg" p-id="2793" xmlns:xlink="http://www.w3.org/1999/xlink" width="128" height="128"><path d="M898.47 735.67c25.25-43.86 43.49-92.27 52.36-142.13a466.5 466.5 0 0 0 2.64-146.43c-11-79.87-45.23-154.68-95.53-217.35C808.22 167.82 741.42 121 667.36 92.87 590 63.47 504.52 57.7 423.44 73.39 345.16 88.54 272 126.15 212.53 179.09 153.44 231.73 109.3 300.64 85.05 375.88c-25.36 78.66-27.64 164.81-7.74 244.93C96.49 698 137.24 769.74 193.1 826.29a448.65 448.65 0 0 0 204 118.15c90.21 23.66 188.71 18.86 275.55-15.51a468.81 468.81 0 0 0 68.2-33.18l-23.08 3L778 910.89l95.65 19.24 22.22 4.46c10.69 2.15 21.18 0.26 29.14-7.7 8.13-8.13 9.53-18.29 7.7-29.13l-10.57-62.65-16.76-99.41-3.89-23.11c-1.18-7-7.91-14.47-13.77-17.9-6.42-3.75-15.88-5.34-23.07-3s-14.24 6.83-17.9 13.76c-4 7.52-4.43 14.71-3 23.07l10.57 62.65 16.76 99.41 3.9 23.11 36.84-36.84-74.51-15-97.51-19.61c-1.63-0.33-3.25-0.67-4.88-1-8.86-1.69-16.86-1.39-25 3.19-17.01 9.57-33.92 18.65-51.78 26.24l7.15-3a420.9 420.9 0 0 1-105.59 28.84l8-1.07a427.06 427.06 0 0 1-112 0.14l8 1.07a419.94 419.94 0 0 1-106.32-28.88l7.15 3a420.78 420.78 0 0 1-56.31-28.94q-13.49-8.23-26.22-17.47-2.66-1.92-5.28-3.88l-3.14-2.37c-4.27-3.22 6.12 4.8 1.92 1.48s-8.19-6.53-12.19-9.9a420.16 420.16 0 0 1-44.76-43.94q-4.74-5.4-9.3-11c-1.66-2-3.3-4.07-4.92-6.12-1.36-1.74-4.48-6 1.47 1.92-1.05-1.4-2.12-2.78-3.16-4.18q-9-12.07-17.18-24.79a420.2 420.2 0 0 1-33.14-63l3 7.15a419.28 419.28 0 0 1-28.87-106.32l1.06 8a426.74 426.74 0 0 1 0-111l-1.06 8a419.5 419.5 0 0 1 28.87-106.32l-3 7.16a420.35 420.35 0 0 1 29-56.32q8.25-13.41 17.48-26.19 1.92-2.66 3.89-5.28c0.78-1.05 1.58-2.09 2.36-3.13 3.23-4.28-4.79 6.11-1.48 1.91S210 268 213.4 264a421 421 0 0 1 43.93-44.76q5.42-4.74 11-9.3 3-2.49 6.13-4.92c1.73-1.36 6-4.48-1.93 1.47 1.4-1 2.78-2.12 4.18-3.16q12.07-9 24.79-17.18a420.69 420.69 0 0 1 63-33.14l-7.15 3a419.5 419.5 0 0 1 106.32-28.87l-8 1.07a426.74 426.74 0 0 1 111 0l-8-1.07A419.39 419.39 0 0 1 665 156.06l-7.15-3a422 422 0 0 1 56.31 29q13.43 8.25 26.19 17.49 2.65 1.92 5.28 3.88c1.05 0.78 2.09 1.58 3.14 2.37 4.27 3.22-6.11-4.8-1.92-1.49s8.19 6.53 12.19 9.91a419.13 419.13 0 0 1 44.76 43.93q4.76 5.42 9.31 11 2.48 3 4.91 6.13c1.37 1.73 4.48 6-1.47-1.92 1.05 1.39 2.12 2.77 3.17 4.17q9 12.09 17.17 24.8a420.2 420.2 0 0 1 33.14 63l-3-7.16a419.94 419.94 0 0 1 28.87 106.22l-1.07-8a427.69 427.69 0 0 1-0.13 112l1.07-8A421.15 421.15 0 0 1 866.94 666l3-7.16a429 429 0 0 1-23.21 46.64c-7.82 13.58-3.62 33.38 10.74 41s32.65 3.69 41-10.81z" fill="#00a0e9" p-id="2794" data-spm-anchor-id="a313x.collections_detail.0.i5.5ef93a81zAnxIS" class=""></path><path d="M512.03 697.58m-30.44 0a30.44 30.44 0 1 0 60.88 0 30.44 30.44 0 1 0-60.88 0Z" fill="#FF6900" p-id="2795" data-spm-anchor-id="a313x.collections_detail.0.i7.5ef93a81zAnxIS" class="selected"></path><path d="M613.21 495.36c-18.11 23.75-42.7 40.44-70.75 47.63v67.07c0 17.06-13.94 29.7-30.43 30.44s-30.44-14.5-30.44-30.44v-93.54c0-16.61 14-30.28 30.44-30.43 2.36 0 4.73-0.09 7.09-0.26 3.81-1 4.12-0.93 3.18-0.64 2.48-0.46 5-0.87 7.41-1.55 2.06-0.58 4.11-1.24 6.13-2 3.33-2.16 3.79-2.13 3-1.54 1.78-0.84 3.61-1.63 5.26-2.58 3.38-1.95 6.39-4.46 9.71-6.44l-2.81 1.76c-1.06 0.68-1.55 1 0 0a28.63 28.63 0 0 0 3.12-2.25q1.86-1.66 3.61-3.43c2.12-2.12 4-4.94 6.19-7l0.66-0.94q1.4-2.07 2.69-4.22c1.24-2.06 2.23-4.31 3.3-6.51-0.45 0.55-0.32 0 1.65-3.16 0.53-1.5 1-3 1.5-4.53q1.23-4.09 2.09-8.3c0.34-1.66 0.45-3.48 0.9-5.11-0.12 0.43-0.22 0.82-0.32 1.18-0.21 2.66-1.77 6.62 0 0a95.47 95.47 0 0 0 0.12-12.43v-0.47c-0.2 0.42-0.63-0.53-0.45-3.83-1.33-5.7-3.4-11.1-4.84-16.72-0.22-0.46-0.43-0.91-0.66-1.36q-1.14-2.24-2.4-4.41-1.94-3.36-4.16-6.55c-3.71-3.21-3-3.29-1.69-2.05-0.37-0.47-0.73-0.94-1.1-1.35a95.29 95.29 0 0 0-7-7 27.4 27.4 0 0 0-3.12-2.26c-1.55-0.94-1.06-0.68 0 0l2.88 1.73c-1.4-0.83-2.7-2-4.06-2.9-2.3-1.55-4.67-3-7.1-4.35q-2.09-1.15-4.22-2.2c-3.84-0.95-4.1-1.25-3.13-1.07-1.86-0.7-3.72-1.46-5.6-2-3.42-1-7.11-1.27-10.54-2.17-1.2-0.09-2.41-0.18-3.62-0.23a97.25 97.25 0 0 0-10.66 0.2c-6.61 1.78-2.66 0.21 0 0l1.18-0.32c-1.63 0.45-3.44 0.56-5.11 0.9a94.54 94.54 0 0 0-9.92 2.6c-1.36 0.44-2.71 0.94-4.06 1.42-4.52 2.32-8.65 5-12.88 7.7-0.13 0.11-0.83 0.56-2.43 1.53a12.08 12.08 0 0 0-1.1 0.86c-1 0.91-2.05 1.85-3.05 2.81-2.36 2.28-4.5 4.74-6.7 7.18-0.76 1.09-1.52 2.16-2.25 3.28a95.61 95.61 0 0 0-5 8.67c-0.3 0.59-0.57 1.23-0.84 1.88 1-1.8 1.94-2.39-0.88 2a96.82 96.82 0 0 0-2.83 9.45c-0.36 1.49-0.67 3-1 4.5 0.25 3.66 0 4.45-0.16 3.84-0.18 2.05-0.46 4.12-0.47 6.08-0.16 17.06-13.82 29.69-30.44 30.43-16.33 0.74-30.58-14.51-30.44-30.43 0.41-43.9 23.47-85.09 61.2-107.79 32.22-19.38 74.43-23.5 109.37-9.14 36.52 15 64.94 44.57 75.76 83 10.09 36.21 3.14 77.69-19.78 107.76z" fill="#FF6900" p-id="2796" data-spm-anchor-id="a313x.collections_detail.0.i6.5ef93a81zAnxIS" class="selected"></path></svg>