<?xml version="1.0" standalone="no"?><!DOCTYPE svg PUBLIC "-//W3C//DTD SVG 1.1//EN" "http://www.w3.org/Graphics/SVG/1.1/DTD/svg11.dtd"><svg t="1735704302417" class="icon" viewBox="0 0 1024 1024" version="1.1" xmlns="http://www.w3.org/2000/svg" p-id="3445" data-spm-anchor-id="a313x.collections_detail.0.i21.37c93a81Y6CFpH" width="128" height="128" xmlns:xlink="http://www.w3.org/1999/xlink"><path d="M542 774.49V514c0-15.69-13.8-30.72-30-30s-30 13.18-30 30v260.49c0 15.69 13.8 30.72 30 30s30-13.18 30-30z" fill="#FF6900" p-id="3446" data-spm-anchor-id="a313x.collections_detail.0.i23.37c93a81Y6CFpH" class=""></path><path d="M920.64 848.51V430.64v-8c-0.16-20.66-7.8-39.42-21.41-55-16.65-19.06-41.47-26.88-66.27-26.88h-60.62v-28c0-29.78-4.41-59.87-15.05-87.78-12.84-33.7-32-64.47-57.87-89.81-25.5-25-56-43.75-89.53-56C581.1 68.55 550.58 65 520.07 65c-27.94 0-55.43 0.45-82.82 7.09-67.31 16.31-127 63.27-158.37 125a248.89 248.89 0 0 0-27.14 106.4c-0.33 12.39-0.25 24.8-0.16 37.2h-61.85c-2 0-4.08 0-6.11 0.06-27.93 1.25-53.25 15.57-68.11 38.94-10.41 16.39-12.13 34.57-12.13 53.18v419.3c0 8.31-0.07 16.62 0 24.94a83.12 83.12 0 0 0 22.2 55.81c15.23 16.69 38.11 25.79 60.68 26 20.15 0.18 40.3 0 60.44 0h591.14a84.78 84.78 0 0 0 70-38c8.68-13 12.73-28.95 12.78-44.4 0.05-9.35 0.02-18.68 0.02-28.01z m-66-448.06a9.41 9.41 0 0 1-1.29-1c0.11-0.06 0.65 0.4 1.32 1z m-541.5-115.53a217.72 217.72 0 0 1 13.07-47.82 216.64 216.64 0 0 1 17.93-32.34c1.75-2.59 3.57-5.15 5.43-7.66l-0.85 1c0.37-0.44 0.72-0.88 1.07-1.33 0.15-0.19 0.29-0.4 0.44-0.59 0.66-0.89 1.87-2.3 2.12-2.55q6.33-7.63 13.33-14.63 7.19-7.19 15-13.67c0.24-0.2 0.6-0.55 1-0.95 0.29-0.2 0.66-0.47 1.15-0.84q4.22-3.13 8.57-6.08a215.71 215.71 0 0 1 32.34-17.94 217.8 217.8 0 0 1 47.31-13c13.61-1.47 27.22-1.46 40.92-1.46s27.31 0 40.92 1.46a217.8 217.8 0 0 1 47.31 13 215.71 215.71 0 0 1 32.34 17.94c2.6 1.75 5.15 3.57 7.67 5.43l-1-0.85 1.32 1.07 0.6 0.43c0.89 0.67 2.3 1.87 2.55 2.12q7.63 6.34 14.64 13.34 7.18 7.18 13.66 15c0.2 0.25 0.56 0.61 1 1l0.83 1.15q3.15 4.2 6.09 8.56a216.64 216.64 0 0 1 17.93 32.34 217.72 217.72 0 0 1 13.07 47.82c1.84 16.67 1.91 33.63 1.71 50.54H338.23c-8.92 0-17.86-0.11-26.8-0.18-0.2-16.8-0.12-33.7 1.71-50.31zM164.06 405.65a9.64 9.64 0 0 1-1 1.27c-0.06-0.08 0.39-0.62 1-1.27z m5.28 493.56a9.6 9.6 0 0 1 1.3 1c-0.08 0.05-0.64-0.4-1.3-1z m532.27 5.39H186.83c-1.45 0-2.89-0.05-4.33-0.14a60.67 60.67 0 0 1-7.14-1.93 53.9 53.9 0 0 1-5.49-3.09l-1-0.68c-1-0.94-2.08-2-2.18-2.11-0.92-0.91-1.74-1.92-2.63-2.85a53.83 53.83 0 0 1-3.36-5.72 56.59 56.59 0 0 1-1.93-6.91c-0.32-4.8-0.17-9.64-0.17-14.43V476.09c0-17.83-0.14-35.67 0-53.51 0-1.33 0.06-2.65 0.14-4a58.86 58.86 0 0 1 2-7.05 54 54 0 0 1 3.14-5.41l0.69-1c1-1 2.05-2.06 2.16-2.16 0.91-0.9 1.94-1.71 2.89-2.59a56.38 56.38 0 0 1 5.81-3.3 62.15 62.15 0 0 1 7.11-1.92c6.5-0.45 13.14-0.15 19.6-0.15h74.28a28.73 28.73 0 0 0 5.36 0.52h404c18.26 0 36.55 0.34 54.81 0h1.7a28 28 0 0 0 5.24-0.52H837.2q2.17 0 4.32 0.15a62.08 62.08 0 0 1 7.14 1.92 56.94 56.94 0 0 1 5.5 3.09c0.34 0.22 0.68 0.46 1 0.69 1 0.94 2.09 2 2.19 2.11 0.92 0.9 1.74 1.92 2.63 2.85a55.58 55.58 0 0 1 3.36 5.72 56.94 56.94 0 0 1 1.93 6.9c0.32 4.8 0.17 9.65 0.17 14.44v390.69c0 17.84 0.14 35.68 0 53.52q0 2-0.15 4a55.82 55.82 0 0 1-2 7.05 51.23 51.23 0 0 1-3.14 5.4c-0.22 0.34-0.45 0.67-0.69 1-1 1-2 2.06-2.15 2.16-0.92 0.9-2 1.71-2.89 2.58a53.85 53.85 0 0 1-5.81 3.3 57.32 57.32 0 0 1-7.16 1.93c-1.21 0.08-2.43 0.13-3.65 0.14H701.61zM860 894a10.13 10.13 0 0 1 1-1.27c0 0.09-0.43 0.63-1 1.27z" fill="#00a0e9" p-id="3447" data-spm-anchor-id="a313x.collections_detail.0.i22.37c93a81Y6CFpH" class="selected"></path><path d="M352.35 193.65l-0.35 0.35c-0.75 0.91-1.49 1.84-2.23 2.76-0.07 0.1-0.14 0.21-0.22 0.31a40.58 40.58 0 0 0 2.8-3.42zM643.69 165.68l-0.39-0.33c-0.91-0.75-1.83-1.48-2.76-2.22l-0.3-0.22a34 34 0 0 0 3.45 2.77z" fill="#0071C3" p-id="3448"></path></svg>