<?xml version="1.0" standalone="no"?><!DOCTYPE svg PUBLIC "-//W3C//DTD SVG 1.1//EN" "http://www.w3.org/Graphics/SVG/1.1/DTD/svg11.dtd"><svg t="1735710108200" class="icon" viewBox="0 0 1024 1024" version="1.1" xmlns="http://www.w3.org/2000/svg" p-id="2244" data-spm-anchor-id="a313x.collections_detail.0.i0.5ef93a816vAQi8" xmlns:xlink="http://www.w3.org/1999/xlink" width="128" height="128"><path d="M384.36 899.13H94.93l29.94 29.94v-288.3c0-15.66-13.77-30.66-29.94-29.94S65 624 65 640.77v288.3A30.36 30.36 0 0 0 94.93 959h289.43c15.66 0 30.66-13.77 29.93-29.93s-13.15-29.94-29.93-29.94zM899.13 640.73v288.34l29.94-29.94H639.84c-15.66 0-30.66 13.77-29.93 29.94S623.06 959 639.84 959h289.23A30.36 30.36 0 0 0 959 929.07V640.73c0-15.66-13.77-30.66-29.93-29.93s-29.94 13.2-29.94 29.93zM639.84 124.87h289.23l-29.94-29.94v227.94c0 15.66 13.77 30.66 29.94 29.93S959 339.65 959 322.87V94.93A30.36 30.36 0 0 0 929.07 65H639.84c-15.66 0-30.66 13.77-29.93 29.93s13.15 29.94 29.93 29.94zM124.87 320.65V94.93l-29.94 29.94h289.43c15.66 0 30.66-13.77 29.93-29.94S401.14 65 384.36 65H94.93A30.36 30.36 0 0 0 65 94.93v225.72c0 15.66 13.77 30.66 29.93 29.93s29.94-13.15 29.94-29.93z" fill="#00a0e9" p-id="2245" data-spm-anchor-id="a313x.collections_detail.0.i4.5ef93a816vAQi8" class="selected"></path><path d="M626.53 415.46a156.46 156.46 0 0 0-11.08-11.8c-2-2-4.15-3.82-6.28-5.66-0.5-0.43-1-0.89-1.47-1.31-1.89-1.58-12.83-10.37-3-2.34a57.5 57.5 0 0 0-5-3.71v-0.07C566.51 366.73 524.25 357 484 364.69a149.36 149.36 0 0 0-75.87 38.95q-4 3.81-7.68 7.91c-0.86 0.95-3.1 3.63-5.19 6.15-0.11 0.13-0.23 0.25-0.34 0.37l-0.91 1.08-1.25 1.52a46.65 46.65 0 0 0-2.49 3.49h-0.07c-23.84 33.23-33.54 75.49-25.88 115.76a149.44 149.44 0 0 0 38.95 75.87q3.81 4 7.91 7.68c0.95 0.86 3.64 3.1 6.16 5.19l0.37 0.34 1.07 0.91 1.52 1.26c1.15 0.89 2.32 1.72 3.5 2.49v0.06c33 23.65 74.8 33.4 114.79 26.06a149.55 149.55 0 0 0 76.21-38.58q4.32-4.08 8.3-8.5c0.86-1 3.1-3.63 5.19-6.15l0.34-0.38 0.91-1.07 1.26-1.52c0.89-1.15 1.72-2.32 2.49-3.5l0.06 0.05a153.66 153.66 0 0 0 26.54-63.9c0.25-1.43 0.44-2.85 0.58-4.25 0.2-1.2 0.37-2.44 0.49-3.72a152.59 152.59 0 0 0-14-81.31 148.49 148.49 0 0 0-20.43-31.49z m-44 40a5.26 5.26 0 0 0-0.87-0.92 2.55 2.55 0 0 1 0.82 0.96z m-127.39-14.05a6.23 6.23 0 0 0-0.92 0.87c0.06-0.21 0.43-0.52 0.92-0.87z m-14.08 127.34a5.87 5.87 0 0 0 0.86 0.92 2.55 2.55 0 0 1-0.86-0.92z m127.33 14.09a5.26 5.26 0 0 0 0.92-0.87 2.55 2.55 0 0 1-0.92 0.87z m-1.73 1.07l-0.06 0.05c-0.39 0.24-0.72 0.43-0.9 0.56-2.18 1.48-4.4 2.91-6.66 4.27-3.9 2.35-7.91 4.49-12 6.49a162.74 162.74 0 0 1-23.24 6.37 163.75 163.75 0 0 1-24.06 0 163.4 163.4 0 0 1-23.22-6.36 159.65 159.65 0 0 1-20-11.72c-1.79-1.61-3.62-3.17-5.37-4.83-3.96-3.74-7.57-7.69-11.15-11.74l-0.05-0.06c-0.23-0.39-0.43-0.73-0.55-0.9-1.49-2.18-2.91-4.41-4.28-6.67-2.35-3.89-4.49-7.9-6.49-12a163.2 163.2 0 0 1-6.35-23.18 165.52 165.52 0 0 1 0-24.19 162.94 162.94 0 0 1 6.35-23.16 159 159 0 0 1 11.71-20c1.61-1.79 3.17-3.62 4.83-5.37 3.71-3.94 7.69-7.55 11.72-11.15h0.06c0.39-0.24 0.73-0.43 0.9-0.56 2.18-1.48 4.41-2.91 6.67-4.27 3.89-2.35 7.9-4.49 12-6.49a163.2 163.2 0 0 1 23.18-6.35 165.52 165.52 0 0 1 24.19 0A162.91 162.91 0 0 1 547 429a160.25 160.25 0 0 1 20 11.72c1.79 1.61 3.62 3.17 5.37 4.83 3.94 3.71 7.55 7.69 11.15 11.72l0.05 0.06c0.24 0.39 0.44 0.72 0.56 0.9 1.48 2.18 2.91 4.41 4.27 6.67 2.35 3.89 4.49 7.9 6.49 12a163.24 163.24 0 0 1 6.39 23.1 165.52 165.52 0 0 1 0 24.19 164.15 164.15 0 0 1-6.35 23.15 158.44 158.44 0 0 1-11.72 20c-1.61 1.79-3.17 3.62-4.83 5.37-3.71 3.99-7.69 7.6-11.72 11.2z" fill="#FF6900" p-id="2246" data-spm-anchor-id="a313x.collections_detail.0.i2.5ef93a816vAQi8" class=""></path><path d="M630.77 603.55c-0.4 0.52-0.81 1-1.23 1.55 4.27-5.24 3.46-4.26 1.23-1.55zM392.77 420.7c0.39-0.52 0.8-1 1.22-1.55-4.27 5.24-3.46 4.26-1.22 1.55zM420.34 631.13c-0.52-0.4-1-0.81-1.55-1.23 5.21 4.27 4.26 3.46 1.55 1.23zM307.48 346.4a0.71 0.71 0 0 0-0.14 0.1c-0.51 0.4-1 0.78-1.58 1.16-1.58 1.34-3.05 2.81 1.72-1.26zM722.71 351.24l-1.13-0.86-1.32-1-0.54-0.38a34.34 34.34 0 0 0 2.99 2.24z" fill="#FD9A16" p-id="2247"></path><path d="M925.92 487.43a23.72 23.72 0 0 0-1.83-3.12c-0.38-0.59-0.79-1.16-1.21-1.72-37.83-54.16-80.13-106.48-131-150.18-51.08-43.86-110.35-80.51-176.76-99.23-70.67-19.91-149-18.7-218.87 3.73-66.4 21.32-124.6 59.38-175 105.24a705 705 0 0 0-66.7 70.23C143 426.33 131.7 440.52 120.85 455q-7.8 10.42-15.32 21c-5.34 7.53-10.64 15.11-12.24 24.28C91 513.21 92 525.82 98.44 537.6c3.63 6.66 8.73 12.83 13.19 19q14.34 19.88 29.68 39.09c21.59 26.95 44.35 53 69.58 77 49.3 46.79 107 86 172.19 109.94 69 25.3 146.12 28.85 217.69 11.76 68.86-16.45 130.46-51.71 183.44-96 53.23-44.5 97.54-98.25 136.77-154.13 11.73-16.74 14.77-38.66 4.94-56.83z m-71 47.85q-10.45 14.22-21.44 28.07c-0.75 0.95-1.5 1.89-2.26 2.83-0.42 0.53-4.32 5.15-1.07 1.35s-0.66 0.8-1.08 1.32l-2.31 2.79q-5.78 7-11.71 13.81-11.06 12.74-22.71 25a616.14 616.14 0 0 1-48 45.38c-8.11 6.87-16.45 13.47-25 19.88l-2.34 1.71c-1.84 1.31-3.68 2.61-5.54 3.9q-6.94 4.81-14.09 9.38A410.27 410.27 0 0 1 633 724.27a373.49 373.49 0 0 1-81.86 21.4 352.87 352.87 0 0 1-79.9-0.09 357.85 357.85 0 0 1-78.42-20.39A414.58 414.58 0 0 1 335.54 696q-14.15-8.62-27.62-18.2c-2.07-1.47-4.09-3-6.2-4.46 7.84 5.31-0.3-0.26-2.1-1.63q-6.76-5.16-13.37-10.5a581.34 581.34 0 0 1-50.66-46.47q-11.72-12-22.79-24.64-5.42-6.14-10.7-12.38-2.78-3.3-5.52-6.61l-2.06-2.5q-11.75-14.68-23-29.73-5.9-7.95-11.64-16c-2.52-3.54-5.42-7.09-7.78-10.85 2.08-3.27 4.57-6.37 6.78-9.48q5.26-7.38 10.67-14.67 9.9-13.37 20.27-26.41c1.6-2 3.24-4 4.81-6-5.71 7.32 0.39-0.45 1.8-2.13q5.43-6.56 11-13 11.13-12.82 22.86-25.19a634.34 634.34 0 0 1 48-45.65q13-11.06 26.63-21.36l0.73-0.54c0.25-0.2 0.51-0.4 0.75-0.57l0.83-0.59 0.43-0.35-0.29 0.25c1.75-1.26 3.51-2.52 5.28-3.76q7.37-5.11 14.92-10a413 413 0 0 1 64.46-33.62 359 359 0 0 1 78.57-20.4 364.13 364.13 0 0 1 82.43-0.07A356.6 356.6 0 0 1 631 298.86a413.17 413.17 0 0 1 54.81 27.68q14.47 8.68 28.24 18.38c1.92 1.35 3.82 2.72 5.72 4.09-0.26-0.21-0.54-0.41-0.85-0.65l1.39 1 0.6 0.43c0.67 0.48 1.62 1.22 1.85 1.42q6.51 4.92 12.87 10a604.68 604.68 0 0 1 94 94.59c-1.14-1.43-2.73-3.39-0.54-0.66q1.6 2 3.23 4 3.23 4.05 6.39 8.13 5.55 7.14 11 14.38 11.24 15 21.92 30.4c-1.89 2.91-4.09 5.69-6.07 8.48q-5.27 7.47-10.65 14.75z" fill="#FF6900" p-id="2248" data-spm-anchor-id="a313x.collections_detail.0.i1.5ef93a816vAQi8" class=""></path></svg>